<svg width="1440" height="1152" viewBox="0 0 1440 1152" fill="none" xmlns="http://www.w3.org/2000/svg">
<path opacity="0.16" fill-rule="evenodd" clip-rule="evenodd" d="M719.494 1385.79L243.172 397.176H1195.83L719.494 1385.79ZM718.532 966.494L524.835 716.456H912.242L718.532 966.494ZM718.723 1124.21L483.499 628.943H950.695L718.723 1124.21ZM719.5 1505.04L-0.0385742 546.238H1439.04L719.5 1505.04ZM719.026 154.831L235.482 1127.1H1202.56L719.026 154.831ZM719.5 0.96167L-0.0385742 966.494H1439.04L719.5 0.96167ZM263.36 156.755L719.393 833.782L1177.56 156.755H263.36ZM313.348 1383.87L719.974 544.314L1126.61 1383.87H313.348ZM719.013 397.176L455.621 834.743H982.418L719.013 397.176Z" stroke="#A6A6A6" stroke-width="0.5" stroke-linecap="round" stroke-linejoin="round"/>
</svg>
