<svg width="32" height="32" viewBox="0 0 32 32" fill="none" xmlns="http://www.w3.org/2000/svg">
<path d="M23.6805 2.56H8.32055C5.14487 2.56 2.56055 5.14368 2.56055 8.32V23.68C2.56055 26.8563 5.14487 29.44 8.32055 29.44H23.6805C26.8562 29.44 29.4405 26.8563 29.4405 23.68V8.32C29.4405 5.14368 26.8562 2.56 23.6805 2.56ZM22.4005 17.28V19.84V19.8534H22.3993C22.3916 21.6115 20.9599 23.04 19.2005 23.04H18.8805C18.2489 23.04 17.6434 22.7712 17.2191 22.3027C16.7954 21.8349 16.5887 21.2032 16.6514 20.5715C16.7653 19.4432 17.7842 18.56 18.9721 18.56H19.8405C20.5465 18.56 21.1205 17.9859 21.1205 17.28V11.0112L13.4405 12.4512V19.2V21.76C13.4405 23.5245 12.005 24.96 10.2405 24.96H9.92055C9.28887 24.96 8.68343 24.6912 8.25911 24.2227C7.83543 23.7549 7.62871 23.1232 7.69143 22.4915C7.80535 21.3632 8.82423 20.48 10.0121 20.48H10.8805C11.5865 20.48 12.1605 19.9059 12.1605 19.2V9.82592C12.1605 9.2096 12.6002 8.68032 13.2057 8.56768L21.2639 7.05728C21.5449 7.00416 21.8341 7.0784 22.0537 7.26144C22.2745 7.44448 22.4005 7.71392 22.4005 8V17.28Z" fill="white"/>
</svg>
