<svg width="32" height="32" viewBox="0 0 32 32" fill="none" xmlns="http://www.w3.org/2000/svg">
<g clip-path="url(#clip0_25_1018)">
<path d="M29.474 10.4381C29.4107 9.00346 29.1788 8.01718 28.8464 7.16255C28.5036 6.25538 27.9761 5.44319 27.2851 4.76802C26.6099 4.08234 25.7924 3.54954 24.8957 3.21205C24.0361 2.87972 23.055 2.64773 21.6204 2.58447C20.1751 2.51586 19.7162 2.5 16.0505 2.5C12.3847 2.5 11.9259 2.51586 10.4859 2.57912C9.05131 2.64237 8.06502 2.87457 7.2106 3.2067C6.30323 3.54954 5.49104 4.07698 4.81587 4.76802C4.13019 5.44319 3.59759 6.26074 3.2599 7.1574C2.92757 8.01718 2.69558 8.9981 2.63233 10.4327C2.56372 11.878 2.54785 12.3369 2.54785 16.0026C2.54785 19.6684 2.56372 20.1272 2.62697 21.5672C2.69022 23.0018 2.92242 23.9881 3.25475 24.8427C3.59759 25.7499 4.13019 26.5621 4.81587 27.2373C5.49104 27.9229 6.30859 28.4557 7.20525 28.7932C8.06502 29.1256 9.04595 29.3575 10.4808 29.4208C11.9205 29.4843 12.3796 29.4999 16.0453 29.4999C19.7111 29.4999 20.1699 29.4843 21.6099 29.4208C23.0445 29.3575 24.0308 29.1256 24.8852 28.7932C26.6998 28.0917 28.1344 26.6571 28.8359 24.8427C29.168 23.9829 29.4002 23.0018 29.4635 21.5672C29.5267 20.1272 29.5426 19.6684 29.5426 16.0026C29.5426 12.3369 29.5372 11.878 29.474 10.4381ZM27.0426 21.4617C26.9845 22.7803 26.763 23.4924 26.5784 23.9671C26.1247 25.1433 25.1912 26.0769 24.0149 26.5306C23.5402 26.7152 22.823 26.9367 21.5096 26.9945C20.0854 27.058 19.6583 27.0737 16.0558 27.0737C12.4533 27.0737 12.0209 27.058 10.6019 26.9945C9.2833 26.9367 8.57125 26.7152 8.09655 26.5306C7.51121 26.3142 6.9784 25.9714 6.54594 25.5231C6.09761 25.0852 5.75477 24.5578 5.53843 23.9724C5.35383 23.4977 5.13234 22.7803 5.07444 21.4671C5.01099 20.043 4.99533 19.6156 4.99533 16.0131C4.99533 12.4106 5.01099 11.9782 5.07444 10.5594C5.13234 9.24081 5.35383 8.52876 5.53843 8.05406C5.75477 7.46851 6.09761 6.93591 6.55129 6.50324C6.98891 6.05491 7.51636 5.71207 8.1019 5.49594C8.57661 5.31133 9.29402 5.08985 10.6073 5.03174C12.0314 4.96849 12.4587 4.95263 16.061 4.95263C19.6688 4.95263 20.096 4.96849 21.5149 5.03174C22.8335 5.08985 23.5456 5.31133 24.0203 5.49594C24.6056 5.71207 25.1384 6.05491 25.5709 6.50324C26.0192 6.94106 26.3621 7.46851 26.5784 8.05406C26.763 8.52876 26.9845 9.24596 27.0426 10.5594C27.1058 11.9835 27.1217 12.4106 27.1217 16.0131C27.1217 19.6156 27.1058 20.0376 27.0426 21.4617Z" fill="white"/>
<path d="M16.0502 9.06671C12.221 9.06671 9.11426 12.1733 9.11426 16.0026C9.11426 19.832 12.221 22.9386 16.0502 22.9386C19.8795 22.9386 22.9861 19.832 22.9861 16.0026C22.9861 12.1733 19.8795 9.06671 16.0502 9.06671ZM16.0502 20.5018C13.566 20.5018 11.551 18.487 11.551 16.0026C11.551 13.5183 13.566 11.5035 16.0502 11.5035C18.5345 11.5035 20.5493 13.5183 20.5493 16.0026C20.5493 18.487 18.5345 20.5018 16.0502 20.5018Z" fill="white"/>
<path d="M24.8793 8.7925C24.8793 9.68669 24.1542 10.4117 23.2598 10.4117C22.3657 10.4117 21.6406 9.68669 21.6406 8.7925C21.6406 7.89811 22.3657 7.17328 23.2598 7.17328C24.1542 7.17328 24.8793 7.89811 24.8793 8.7925Z" fill="white"/>
</g>
<defs>
<clipPath id="clip0_25_1018">
<rect width="27" height="27" fill="white" transform="translate(2.5 2.5)"/>
</clipPath>
</defs>
</svg>
