<svg width="32" height="32" viewBox="0 0 32 32" fill="none" xmlns="http://www.w3.org/2000/svg">
<path d="M16.0002 3.19977C8.9602 3.19977 3.2002 8.95977 3.2002 15.9998C3.2002 23.0398 8.9602 28.7998 16.0002 28.7998C23.0402 28.7998 28.8002 23.0398 28.8002 15.9998C28.8002 8.95977 23.0402 3.19977 16.0002 3.19977ZM21.0466 22.3998C20.8119 22.3998 20.6946 22.2824 20.4599 22.1651C18.6999 21.108 16.4706 20.5224 14.1239 20.5224C12.8333 20.5224 11.4253 20.7571 10.2519 20.9918C10.0173 20.9918 9.7826 21.1091 9.66526 21.1091C9.19593 21.1091 8.84393 20.7571 8.84393 20.2878C8.84393 19.8184 9.0786 19.4664 9.54793 19.4664C11.0733 19.1144 12.5997 18.8798 14.2423 18.8798C16.941 18.8798 19.405 19.5838 21.517 20.7571C21.7517 20.9918 21.9863 21.1091 21.9863 21.5784C21.7495 22.1651 21.3975 22.3998 21.0466 22.3998ZM22.3362 19.1155C22.1015 19.1155 21.8669 18.9982 21.6322 18.8808C19.6375 17.5902 16.8205 16.8862 13.7709 16.8862C12.2455 16.8862 10.8365 17.1208 9.78153 17.3555C9.54686 17.4728 9.42953 17.4728 9.19486 17.4728C8.6082 17.4728 8.25513 17.0035 8.25513 16.5331C8.25513 15.9464 8.4898 15.7118 9.07646 15.476C10.4845 15.124 11.8935 14.772 13.8882 14.772C17.1735 14.772 20.2242 15.5934 22.8066 17.1187C23.1586 17.3534 23.3933 17.7054 23.3933 18.0584C23.2749 18.6451 22.9239 19.1155 22.3362 19.1155ZM23.8615 15.3598C23.6269 15.3598 23.5095 15.2424 23.1575 15.1251C20.8109 13.8344 17.4082 13.0131 14.1229 13.0131C12.4802 13.0131 10.7202 13.2478 9.1938 13.5998C8.95913 13.5998 8.8418 13.7171 8.4898 13.7171C7.7858 13.8355 7.31646 13.2478 7.31646 12.5448C7.31646 11.8419 7.66846 11.4878 8.1378 11.3715C10.0162 10.9011 12.0109 10.6664 14.1229 10.6664C17.7602 10.6664 21.5149 11.4878 24.4493 13.0131C24.8013 13.2478 25.1533 13.5998 25.1533 14.1864C25.0359 14.8904 24.5655 15.3598 23.8615 15.3598Z" fill="white"/>
</svg>
