<svg width="32" height="32" viewBox="0 0 32 32" fill="none" xmlns="http://www.w3.org/2000/svg">
<path d="M24.5297 17.1953C24.1116 16.6256 24.2312 16.3721 24.5297 15.8628C24.5351 15.857 27.9866 10.7107 28.3422 8.96544L28.3444 8.96428C28.5211 8.32826 28.3444 7.86084 27.4899 7.86084H24.6622C23.9424 7.86084 23.6105 8.26199 23.4327 8.7108C23.4327 8.7108 21.993 12.4293 19.9564 14.8396C19.299 15.5361 18.9952 15.7593 18.6363 15.7593C18.4596 15.7593 18.1848 15.5361 18.1848 14.9001V8.96428C18.1848 8.20152 17.9833 7.86084 17.3874 7.86084H12.9412C12.4897 7.86084 12.2214 8.21664 12.2214 8.54802C12.2214 9.27125 13.2397 9.43752 13.3453 11.4723V15.8872C13.3453 16.8547 13.1826 17.0326 12.8216 17.0326C11.8604 17.0326 9.52738 13.299 8.14482 9.02591C7.86572 8.19687 7.59309 7.862 6.86787 7.862H4.03917C3.23205 7.862 3.06934 8.26315 3.06934 8.71197C3.06934 9.50496 4.03055 13.4478 7.53921 18.6569C9.8776 22.2126 13.1707 24.1392 16.1665 24.1392C17.9671 24.1392 18.187 23.7113 18.187 22.9753C18.187 19.5778 18.0242 19.2569 18.9262 19.2569C19.3443 19.2569 20.0641 19.4801 21.7452 21.1952C23.6665 23.2288 23.9823 24.1392 25.0577 24.1392H27.8853C28.6914 24.1392 29.0998 23.7113 28.8649 22.8672C28.3271 21.0917 24.6935 17.4395 24.5297 17.1953Z" fill="white"/>
</svg>
