<svg width="32" height="32" viewBox="0 0 32 32" fill="none" xmlns="http://www.w3.org/2000/svg">
<path d="M14.2656 13.4958V18.5042L18.3412 16L14.2656 13.4958Z" fill="white"/>
<path d="M28.3967 9.42758C28.0472 8.00815 27.0172 6.89062 25.709 6.51101C23.7694 5.94681 16.7892 5.93042 15.9996 5.93042C15.2099 5.93042 8.22972 5.94681 6.29051 6.5108C4.98192 6.89062 3.95193 8.00815 3.60269 9.42694C3.07448 11.5673 3.06836 15.82 3.06836 15.9999C3.06836 16.1798 3.07448 20.4326 3.60249 22.5723C3.95193 23.9917 4.98192 25.1093 6.29011 25.4889C8.22972 26.0531 15.2099 26.0695 15.9996 26.0695C16.7892 26.0695 23.7694 26.0531 25.7086 25.4891C27.0172 25.1093 28.0472 23.9917 28.3965 22.5729C28.9247 20.4326 28.9308 16.1798 28.9308 15.9999C28.9308 15.82 28.9247 11.5673 28.3967 9.42758ZM12.7508 21.317V10.6829L21.4042 16.0001L12.7508 21.317Z" fill="white"/>
</svg>
